<svg id="svg" version="1.1" xmlns="http://www.w3.org/2000/svg" xmlns:xlink="http://www.w3.org/1999/xlink" width="400" height="371.2" viewBox="0, 0, 400,371.2"><g id="svgg"><path id="path0" d="M109.132 0.174 C 105.383 0.742,102.380 3.298,101.025 7.074 L 100.632 8.168 100.584 25.137 L 100.537 42.105 106.016 42.105 L 111.495 42.105 111.495 30.063 L 111.495 18.021 122.863 18.021 L 134.232 18.021 134.232 30.063 L 134.232 42.105 139.537 42.105 L 144.842 42.105 144.840 25.474 C 144.837 11.189,144.801 8.689,144.581 7.756 C 143.785 4.376,140.924 1.400,137.502 0.390 C 136.399 0.065,111.125 -0.127,109.132 0.174 M262.547 0.177 C 258.542 0.781,255.327 3.710,254.312 7.679 C 253.991 8.932,253.979 9.600,253.979 25.543 L 253.979 42.105 259.368 42.105 L 264.758 42.105 264.758 29.979 L 264.758 17.853 276.126 17.853 L 287.495 17.853 287.495 29.979 L 287.495 42.105 292.884 42.105 L 298.274 42.105 298.274 25.543 C 298.274 9.600,298.261 8.932,297.941 7.679 C 297.044 4.173,294.416 1.466,290.856 0.382 C 289.825 0.068,264.483 -0.116,262.547 0.177 M100.755 68.000 L 100.803 81.263 101.194 82.311 C 102.250 85.138,104.504 87.392,107.331 88.448 L 108.379 88.840 122.316 88.888 C 137.797 88.941,137.249 88.975,139.453 87.817 C 141.718 86.625,143.466 84.569,144.296 82.118 L 144.757 80.758 144.806 67.747 L 144.856 54.737 139.544 54.737 L 134.232 54.737 134.232 66.358 L 134.232 77.979 122.863 77.979 L 111.495 77.979 111.495 66.358 L 111.495 54.737 106.100 54.737 L 100.706 54.737 100.755 68.000 M254.147 67.639 C 254.147 78.868,254.182 80.675,254.414 81.576 C 255.214 84.677,257.611 87.257,260.811 88.465 L 261.811 88.842 276.126 88.842 L 290.442 88.842 291.441 88.465 C 293.835 87.562,295.893 85.809,296.974 83.753 C 298.140 81.533,298.105 82.030,298.105 67.670 L 298.105 54.737 292.800 54.737 L 287.495 54.737 287.495 66.274 L 287.495 77.811 276.126 77.811 L 264.758 77.811 264.758 66.274 L 264.758 54.737 259.453 54.737 L 254.147 54.737 254.147 67.639 M0.168 107.958 L 0.168 116.211 199.663 116.211 L 399.158 116.211 399.158 107.958 L 399.158 99.705 199.663 99.705 L 0.168 99.705 0.168 107.958 M100.716 192.421 L 100.716 216.421 127.832 216.421 L 154.947 216.421 154.947 192.421 L 154.947 168.421 127.832 168.421 L 100.716 168.421 100.716 192.421 M171.116 192.421 L 171.116 216.421 198.232 216.421 L 225.347 216.421 225.347 192.421 L 225.347 168.421 198.232 168.421 L 171.116 168.421 171.116 192.421 M241.179 192.421 L 241.179 216.421 268.295 216.421 L 295.411 216.421 295.411 192.421 L 295.411 168.421 268.295 168.421 L 241.179 168.421 241.179 192.421 M311.242 192.421 L 311.242 216.420 336.814 216.463 L 362.385 216.505 359.964 219.621 C 358.632 221.335,356.163 224.575,354.479 226.821 L 351.416 230.905 331.329 230.905 L 311.242 230.905 311.240 240.379 C 311.237 250.544,311.274 250.094,310.400 250.446 C 310.076 250.576,306.438 252.254,302.316 254.173 L 294.821 257.663 294.778 244.032 L 294.735 230.400 267.620 230.400 L 240.505 230.400 240.505 243.287 L 240.505 256.175 240.042 256.048 C 235.504 254.804,228.335 257.801,225.052 262.316 L 224.684 262.821 224.679 246.863 L 224.674 230.905 197.558 230.905 L 170.442 230.905 170.442 254.821 L 170.442 278.737 194.274 278.737 C 207.381 278.737,218.105 278.794,218.104 278.863 C 218.104 278.933,216.983 281.869,215.613 285.389 L 213.123 291.789 192.035 291.832 L 170.947 291.875 170.947 315.874 L 170.947 339.872 188.066 339.915 L 205.184 339.958 175.476 352.315 C 159.137 359.111,145.514 364.862,145.203 365.095 C 143.233 366.570,143.927 370.338,146.294 371.027 C 146.922 371.209,153.584 371.017,177.684 370.120 L 183.158 369.916 175.916 369.842 L 168.674 369.768 167.960 369.360 C 166.051 368.266,165.616 365.643,167.080 364.054 C 167.734 363.346,167.949 363.261,189.626 355.191 L 211.512 347.042 210.884 346.361 C 207.529 342.722,206.125 337.092,207.374 332.295 C 207.864 330.415,231.689 278.040,232.846 276.298 C 236.689 270.516,244.064 267.916,250.526 270.063 C 251.175 270.279,257.111 272.924,263.719 275.942 C 273.641 280.473,275.790 281.398,276.061 281.253 C 277.157 280.667,318.295 263.823,319.326 263.539 C 324.945 261.989,331.924 264.438,335.433 269.189 L 336.156 270.167 337.183 268.118 C 339.796 262.905,348.306 248.568,348.769 248.597 C 348.833 248.601,349.542 249.946,350.346 251.586 C 354.221 259.494,355.060 260.562,356.486 259.407 C 357.519 258.570,357.462 257.759,356.208 255.491 C 354.165 251.793,351.158 245.570,351.158 245.041 C 351.158 244.272,367.221 222.305,367.996 222.014 C 368.127 221.965,372.138 225.877,373.183 227.074 C 373.960 227.963,375.016 227.920,375.786 226.970 C 376.386 226.229,376.189 225.595,374.521 222.902 C 372.585 219.779,371.537 217.962,371.537 217.731 C 371.537 217.260,379.196 208.619,383.579 204.147 C 390.192 197.398,394.726 193.926,397.193 193.722 C 399.537 193.527,399.450 194.710,395.999 209.818 L 394.526 216.267 392.804 216.844 C 389.631 217.906,388.944 218.537,389.378 219.986 C 389.739 221.191,390.579 221.412,392.152 220.716 C 393.291 220.212,393.657 220.179,393.535 220.589 C 393.488 220.752,392.953 222.855,392.348 225.263 C 391.026 230.529,390.053 233.983,388.718 238.150 L 387.720 241.268 384.302 242.730 C 382.422 243.534,380.467 244.351,379.958 244.544 C 378.661 245.037,378.213 245.579,378.320 246.526 C 378.535 248.433,379.450 248.507,383.192 246.921 C 384.702 246.281,385.956 245.776,385.980 245.798 C 386.044 245.861,383.860 251.187,382.557 254.147 C 381.287 257.032,376.082 267.475,375.601 268.103 C 375.227 268.592,372.924 269.173,366.147 270.487 C 360.818 271.521,360.589 271.627,360.589 273.059 C 360.589 274.997,360.840 275.017,367.790 273.636 C 370.684 273.060,373.053 272.634,373.053 272.689 C 373.053 272.880,367.930 281.548,365.028 286.269 C 361.728 291.637,361.941 291.200,362.617 291.200 C 363.637 291.200,365.082 292.275,365.484 293.332 C 365.744 294.017,378.611 365.751,378.608 366.507 C 378.607 366.979,378.456 367.505,378.186 367.977 L 377.766 368.712 378.315 368.615 C 378.616 368.561,379.545 368.470,380.379 368.411 C 383.644 368.180,385.719 367.362,387.709 365.520 C 389.638 363.735,390.228 362.910,390.123 362.146 C 389.511 357.710,379.644 301.771,378.702 297.391 C 377.038 289.659,376.877 289.414,373.758 289.894 C 372.861 290.032,372.113 290.135,372.096 290.123 C 372.079 290.110,372.842 288.887,373.791 287.405 C 377.285 281.948,380.532 276.598,381.091 275.374 C 381.408 274.683,382.257 273.243,382.978 272.174 C 386.259 267.316,393.187 254.240,397.482 244.800 C 399.125 241.188,399.182 240.853,399.042 235.621 C 398.973 233.031,399.021 231.474,399.234 229.389 C 399.486 226.923,399.504 225.178,399.397 213.864 C 399.297 203.265,399.315 201.023,399.507 200.561 C 400.097 199.135,399.758 192.555,399.114 192.953 C 399.001 193.023,398.980 192.890,399.053 192.572 C 399.380 191.161,399.457 189.331,399.349 185.600 C 399.259 182.505,399.281 181.322,399.436 180.868 C 400.199 178.640,400.008 175.559,399.140 176.095 C 399.057 176.146,398.989 176.052,398.989 175.885 C 398.989 174.983,381.315 193.545,377.979 197.950 C 377.278 198.875,375.933 200.435,374.989 201.416 C 373.422 203.046,370.009 207.051,366.830 210.992 C 366.140 211.848,365.515 212.547,365.440 212.547 C 365.366 212.547,365.305 202.619,365.305 190.484 L 365.305 168.421 338.274 168.421 L 311.242 168.421 311.242 192.421 M30.316 254.821 L 30.316 278.737 57.432 278.737 L 84.547 278.737 84.547 254.821 L 84.547 230.905 57.432 230.905 L 30.316 230.905 30.316 254.821 M100.716 254.821 L 100.716 278.737 127.832 278.737 L 154.947 278.737 154.947 254.821 L 154.947 230.905 127.832 230.905 L 100.716 230.905 100.716 254.821 M340.519 280.084 C 341.130 281.682,343.132 286.427,343.245 286.547 C 343.455 286.769,344.405 286.018,344.526 285.534 C 344.682 284.915,344.464 284.558,342.474 282.167 C 340.246 279.489,340.323 279.571,340.519 280.084 M30.653 315.874 L 30.653 339.874 57.768 339.874 L 84.884 339.874 84.884 315.874 L 84.884 291.874 57.768 291.874 L 30.653 291.874 30.653 315.874 M100.716 315.874 L 100.716 339.874 127.832 339.874 L 154.947 339.874 154.947 315.874 L 154.947 291.874 127.832 291.874 L 100.716 291.874 100.716 315.874 " stroke="none" fill="#fbfbf8" fill-rule="evenodd"></path><path id="path1" d="M318.824 9.549 C 317.502 10.246,316.884 11.277,316.884 12.787 C 316.884 13.893,316.897 13.921,323.477 28.000 L 330.069 42.105 308.782 42.105 L 287.495 42.105 287.495 29.979 L 287.495 17.853 276.126 17.853 L 264.758 17.853 264.758 29.979 L 264.758 42.105 199.495 42.105 L 134.232 42.105 134.232 30.063 L 134.232 18.021 122.863 18.021 L 111.495 18.021 111.495 30.063 L 111.495 42.105 93.684 42.112 L 75.874 42.118 63.832 29.978 L 51.789 17.837 41.128 17.887 L 30.466 17.937 41.670 29.979 L 52.875 42.021 49.237 42.067 L 45.600 42.112 33.537 29.973 L 21.474 17.834 10.830 17.885 L 0.187 17.937 11.386 29.979 C 17.546 36.602,23.925 43.398,25.562 45.081 C 27.199 46.764,28.559 48.204,28.583 48.281 C 28.655 48.505,2.536 77.088,0.484 79.032 L -0.005 79.495 10.482 79.498 L 20.968 79.502 33.263 67.109 L 45.558 54.715 49.282 54.768 L 53.005 54.821 41.663 67.116 L 30.321 79.411 40.718 79.463 L 51.116 79.515 63.411 67.125 L 75.705 54.735 93.600 54.736 L 111.495 54.737 111.495 66.274 L 111.495 77.811 122.863 77.811 L 134.232 77.811 134.232 66.274 L 134.232 54.737 199.495 54.737 L 264.758 54.737 264.758 66.189 L 264.758 77.642 276.126 77.642 L 287.495 77.642 287.495 66.189 L 287.495 54.737 308.726 54.737 C 320.403 54.737,329.922 54.794,329.879 54.863 C 328.690 56.786,317.137 83.238,317.137 84.036 C 317.137 86.446,319.324 88.146,321.615 87.514 C 322.070 87.389,338.017 79.674,357.053 70.371 C 376.088 61.067,391.928 53.351,392.253 53.225 C 396.694 51.492,398.543 48.630,397.120 45.691 C 396.563 44.541,397.581 45.045,358.737 26.697 C 317.362 7.153,320.671 8.575,318.824 9.549 M395.874 194.043 C 391.836 195.673,383.140 203.922,373.468 215.298 L 371.487 217.627 371.761 218.201 C 372.008 218.718,372.537 219.604,375.269 224.070 C 376.274 225.713,376.350 226.455,375.592 227.213 C 374.807 227.998,373.854 227.920,373.066 227.007 C 371.677 225.400,370.534 224.223,369.292 223.124 L 367.973 221.957 366.536 223.779 C 362.675 228.672,357.055 236.308,353.185 241.918 L 351.107 244.930 351.320 245.539 C 351.678 246.563,354.289 251.887,355.831 254.736 C 357.656 258.110,357.700 258.974,356.081 259.651 C 354.795 260.188,353.681 258.595,350.032 251.000 C 349.401 249.686,348.844 248.606,348.796 248.600 C 348.298 248.542,339.385 263.708,336.354 269.771 L 335.153 272.174 336.197 273.729 C 338.419 277.039,341.183 280.698,343.439 283.318 C 344.269 284.281,344.589 284.784,344.589 285.125 C 344.589 286.189,343.211 287.027,342.098 286.639 C 341.328 286.371,337.519 281.712,334.502 277.347 C 334.006 276.629,333.548 276.042,333.484 276.042 C 333.048 276.042,331.005 281.912,329.441 287.663 C 327.823 293.607,326.201 299.231,324.994 303.074 C 324.674 304.093,324.432 304.947,324.456 304.973 C 324.481 304.999,332.943 301.880,343.261 298.042 L 362.021 291.063 365.070 286.121 C 368.356 280.793,373.070 272.803,372.979 272.713 C 372.949 272.682,370.595 273.116,367.748 273.676 C 361.146 274.975,360.877 274.968,360.525 273.475 C 360.149 271.887,360.908 271.476,366.082 270.470 C 368.480 270.004,371.560 269.355,372.927 269.029 L 375.412 268.435 376.259 266.891 C 379.466 261.048,386.179 246.334,385.808 245.963 C 385.761 245.915,384.519 246.387,383.050 247.011 C 379.958 248.325,379.459 248.394,378.758 247.610 C 377.487 246.188,378.161 245.267,381.474 243.899 C 382.817 243.345,384.749 242.523,385.768 242.073 L 387.621 241.255 388.345 239.154 C 389.933 234.548,393.738 220.455,393.428 220.330 C 393.361 220.303,392.730 220.510,392.025 220.790 C 390.541 221.380,390.107 221.316,389.549 220.425 C 388.567 218.859,390.317 217.213,393.715 216.510 C 394.513 216.345,394.452 216.536,396.208 208.758 C 398.983 196.469,399.219 194.909,398.432 194.122 C 397.891 193.581,397.080 193.556,395.874 194.043 " stroke="none" fill="#efb104" fill-rule="evenodd"></path><path id="path2" d="M0.216 243.242 C 0.263 339.413,0.284 345.772,0.556 347.116 C 2.943 358.888,11.028 367.218,22.653 369.881 L 24.337 370.267 84.670 370.314 L 145.003 370.362 144.586 369.747 C 143.395 367.992,143.840 365.713,145.562 364.747 C 145.954 364.528,159.478 358.860,175.617 352.153 L 204.960 339.958 187.869 339.915 L 170.778 339.872 170.820 315.831 L 170.863 291.789 191.979 291.705 L 213.095 291.621 215.516 285.396 C 216.847 281.972,217.937 279.112,217.937 279.039 C 217.937 278.966,207.232 278.887,194.147 278.864 L 170.358 278.821 170.358 254.821 L 170.358 230.821 197.558 230.821 L 224.758 230.821 224.842 246.598 L 224.926 262.375 225.810 261.295 C 228.685 257.782,232.696 255.942,237.515 255.925 L 240.334 255.916 240.378 243.116 L 240.421 230.316 267.621 230.316 L 294.821 230.316 294.905 243.899 L 294.989 257.483 301.558 254.422 C 305.171 252.739,308.789 251.064,309.599 250.699 L 311.071 250.037 311.114 240.429 L 311.158 230.821 331.306 230.778 L 351.454 230.735 354.127 227.163 C 355.597 225.198,358.037 221.996,359.550 220.048 L 362.299 216.505 336.686 216.463 L 311.074 216.420 311.074 192.421 L 311.074 168.421 338.273 168.421 L 365.472 168.421 365.515 190.422 L 365.558 212.423 368.926 208.325 C 370.779 206.071,373.228 203.238,374.369 202.029 C 375.510 200.821,377.022 199.074,377.729 198.147 C 380.229 194.871,387.120 187.382,394.147 180.304 L 399.158 175.256 399.158 158.028 L 399.158 140.800 199.662 140.800 L 0.165 140.800 0.216 243.242 M155.116 192.421 L 155.116 216.421 127.832 216.421 L 100.547 216.421 100.547 192.421 L 100.547 168.421 127.832 168.421 L 155.116 168.421 155.116 192.421 M225.516 192.421 L 225.516 216.421 198.232 216.421 L 170.947 216.421 170.947 192.421 L 170.947 168.421 198.232 168.421 L 225.516 168.421 225.516 192.421 M295.579 192.421 L 295.579 216.421 268.295 216.421 L 241.011 216.421 241.011 192.421 L 241.011 168.421 268.295 168.421 L 295.579 168.421 295.579 192.421 M84.674 254.863 L 84.717 278.905 57.516 278.905 L 30.316 278.905 30.316 254.821 L 30.316 230.736 57.474 230.778 L 84.632 230.821 84.674 254.863 M155.032 254.821 L 155.032 278.821 127.789 278.864 L 100.547 278.906 100.547 254.934 C 100.547 241.749,100.598 230.911,100.660 230.849 C 100.722 230.787,112.981 230.755,127.902 230.778 L 155.032 230.821 155.032 254.821 M397.642 244.622 C 393.676 253.513,386.307 267.445,383.027 272.253 C 382.332 273.272,381.481 274.712,381.136 275.453 C 380.518 276.779,378.032 280.889,374.171 286.968 C 372.602 289.438,372.283 290.039,372.587 289.949 C 373.866 289.571,376.380 289.633,376.652 290.049 C 377.206 290.895,378.278 294.693,379.105 298.741 C 380.246 304.328,390.227 361.395,390.230 362.349 L 390.232 362.845 390.837 362.265 C 394.411 358.836,397.411 353.344,398.484 348.269 C 399.169 345.026,399.173 344.693,399.123 292.201 L 399.074 241.412 397.642 244.622 M321.347 263.262 C 319.272 263.500,318.543 263.781,297.095 272.632 C 285.747 277.314,276.274 281.218,276.042 281.307 C 275.678 281.447,274.018 280.736,263.747 276.036 C 257.217 273.048,251.229 270.393,250.442 270.136 C 244.056 268.054,236.867 270.537,233.045 276.146 C 232.037 277.625,208.220 329.715,207.555 331.892 C 206.209 336.306,207.375 341.905,210.429 345.694 C 211.022 346.429,211.457 347.077,211.396 347.133 C 211.334 347.189,201.659 350.813,189.895 355.187 C 178.131 359.561,168.204 363.305,167.837 363.507 C 165.692 364.686,165.837 368.173,168.079 369.305 L 168.829 369.684 179.867 369.716 C 185.938 369.734,190.488 369.775,189.979 369.808 C 189.469 369.842,186.135 369.968,182.568 370.089 C 176.992 370.279,189.901 370.313,274.757 370.334 C 383.277 370.360,374.780 370.441,378.643 369.353 C 380.343 368.874,382.075 368.215,381.119 368.410 C 380.877 368.459,380.017 368.551,379.207 368.613 L 377.735 368.726 378.115 367.984 C 378.728 366.789,378.776 367.092,371.983 329.476 C 364.904 290.274,365.389 292.570,364.019 291.767 C 362.391 290.813,363.722 290.411,343.093 298.095 C 332.867 301.904,324.481 304.999,324.457 304.973 C 324.432 304.947,324.674 304.093,324.994 303.074 C 326.201 299.231,327.823 293.607,329.441 287.663 C 331.005 281.912,333.048 276.042,333.484 276.042 C 333.548 276.042,334.006 276.629,334.502 277.347 C 337.696 281.967,341.335 286.385,342.176 286.662 C 343.209 287.003,343.175 286.745,341.714 283.184 C 340.016 279.046,340.139 279.284,338.552 277.095 C 337.830 276.099,336.769 274.584,336.195 273.728 L 335.151 272.171 335.589 271.307 C 336.137 270.226,336.079 270.009,334.865 268.595 C 332.022 265.283,326.440 262.732,322.828 263.096 C 322.708 263.108,322.042 263.182,321.347 263.262 M84.884 315.789 L 84.884 339.874 57.684 339.874 L 30.484 339.874 30.484 315.902 C 30.484 302.717,30.535 291.879,30.596 291.818 C 30.658 291.756,42.898 291.705,57.796 291.705 L 84.884 291.705 84.884 315.789 M155.074 315.832 L 155.117 339.874 127.832 339.874 L 100.547 339.874 100.547 315.902 C 100.547 302.717,100.598 291.879,100.660 291.817 C 100.722 291.755,112.981 291.723,127.902 291.747 L 155.032 291.789 155.074 315.832 " stroke="none" fill="#4a8b5a" fill-rule="evenodd"></path><path id="path3" d="M19.621 47.087 C 10.259 48.727,2.734 56.011,0.664 65.437 C 0.332 66.946,0.287 67.737,0.219 73.263 L 0.142 79.411 0.552 78.989 C 0.778 78.758,6.411 72.660,13.071 65.439 C 23.292 54.356,26.536 50.807,28.424 48.635 C 28.654 48.371,28.620 48.273,28.054 47.582 L 27.430 46.821 24.199 46.836 C 22.252 46.845,20.433 46.945,19.621 47.087 M367.074 65.439 C 316.651 90.097,321.796 87.635,320.687 87.635 C 318.699 87.635,317.279 86.259,317.170 84.229 L 317.110 83.116 323.455 69.053 C 326.945 61.318,329.836 54.933,329.879 54.863 C 329.922 54.794,322.828 54.737,314.115 54.737 L 298.274 54.737 298.274 67.426 C 298.274 83.087,298.285 83.018,295.248 86.078 C 292.265 89.084,292.233 89.089,276.126 89.089 C 260.054 89.089,259.988 89.079,256.995 86.081 C 253.999 83.079,253.986 82.996,253.982 67.326 L 253.979 54.737 199.411 54.737 L 144.842 54.737 144.840 67.495 C 144.837 81.756,144.865 81.376,143.656 83.700 C 142.501 85.919,140.276 87.785,137.771 88.636 C 136.318 89.130,110.865 89.319,108.629 88.853 C 105.148 88.127,102.393 85.676,101.147 82.197 L 100.632 80.758 100.584 67.747 L 100.536 54.737 88.120 54.736 L 75.705 54.735 63.411 67.125 L 51.116 79.515 40.718 79.463 L 30.321 79.411 41.663 67.116 L 53.005 54.821 49.282 54.768 L 45.558 54.715 33.263 67.109 L 20.968 79.502 10.568 79.498 L 0.168 79.495 0.168 89.516 L 0.168 99.537 199.663 99.537 L 399.158 99.537 399.158 84.457 C 399.158 66.331,399.088 65.447,397.321 61.217 C 396.039 58.149,392.678 53.348,391.849 53.402 C 391.747 53.408,380.598 58.825,367.074 65.439 M0.168 123.705 L 0.168 131.200 199.663 131.200 L 399.158 131.200 399.158 123.705 L 399.158 116.211 199.663 116.211 L 0.168 116.211 0.168 123.705 M155.029 192.421 C 155.029 205.667,155.049 211.111,155.074 204.518 C 155.098 197.926,155.098 187.088,155.074 180.434 C 155.049 173.781,155.029 179.175,155.029 192.421 M171.029 192.421 C 171.029 205.667,171.049 211.111,171.074 204.518 C 171.098 197.926,171.098 187.088,171.074 180.434 C 171.049 173.781,171.029 179.175,171.029 192.421 M241.092 192.421 C 241.092 205.667,241.112 211.111,241.137 204.518 C 241.161 197.926,241.161 187.088,241.137 180.434 C 241.112 173.781,241.092 179.175,241.092 192.421 M397.045 177.389 L 396.379 178.105 397.095 177.440 C 397.760 176.820,397.888 176.674,397.760 176.674 C 397.733 176.674,397.411 176.996,397.045 177.389 M391.150 183.284 L 390.484 184.000 391.200 183.334 C 391.866 182.715,391.993 182.568,391.866 182.568 C 391.838 182.568,391.516 182.891,391.150 183.284 M240.415 230.442 C 240.370 230.558,240.354 236.375,240.379 243.368 L 240.423 256.084 240.464 243.242 L 240.505 230.400 267.620 230.400 L 294.735 230.400 294.779 243.958 L 294.824 257.516 294.823 243.916 L 294.821 230.316 267.658 230.273 C 246.016 230.239,240.479 230.273,240.415 230.442 M43.832 230.863 C 51.312 230.887,63.552 230.887,71.032 230.863 C 78.512 230.839,72.392 230.819,57.432 230.819 C 42.472 230.819,36.352 230.839,43.832 230.863 M127.789 230.863 L 154.946 230.906 154.990 254.779 L 155.033 278.653 155.032 254.737 L 155.032 230.821 127.832 230.820 L 100.632 230.820 127.789 230.863 M170.352 230.947 C 170.307 231.063,170.291 241.882,170.315 254.989 L 170.359 278.821 170.401 254.863 L 170.442 230.905 197.557 230.905 L 224.672 230.905 224.716 246.779 L 224.760 262.653 224.759 246.737 L 224.758 230.821 197.595 230.778 C 175.953 230.744,170.416 230.779,170.352 230.947 M321.221 230.863 C 326.756 230.888,335.813 230.888,341.347 230.863 C 346.882 230.839,342.354 230.818,331.284 230.818 C 320.215 230.818,315.686 230.839,321.221 230.863 M44.168 291.832 C 51.648 291.856,63.888 291.856,71.368 291.832 C 78.848 291.807,72.728 291.787,57.768 291.787 C 42.808 291.787,36.688 291.807,44.168 291.832 M100.625 291.915 C 100.581 292.031,100.565 302.888,100.589 316.042 L 100.633 339.958 100.674 315.916 L 100.716 291.874 127.831 291.874 L 154.946 291.874 154.990 315.832 L 155.033 339.789 155.032 315.789 L 155.032 291.789 127.869 291.747 C 106.227 291.713,100.689 291.747,100.625 291.915 M170.857 291.916 C 170.813 292.032,170.796 302.888,170.820 316.042 L 170.864 339.958 170.906 315.916 L 170.947 291.875 192.042 291.832 L 213.137 291.788 192.037 291.747 C 175.281 291.714,170.920 291.749,170.857 291.916 M143.871 367.663 C 143.871 367.987,143.905 368.120,143.948 367.958 C 143.990 367.796,143.990 367.531,143.948 367.368 C 143.905 367.206,143.871 367.339,143.871 367.663 M188.931 369.808 C 189.327 369.843,189.933 369.843,190.278 369.807 C 190.623 369.770,190.299 369.741,189.558 369.742 C 188.817 369.743,188.535 369.772,188.931 369.808 M185.895 369.971 C 186.103 370.012,186.444 370.012,186.653 369.971 C 186.861 369.931,186.691 369.899,186.274 369.899 C 185.857 369.899,185.686 369.931,185.895 369.971 M180.505 370.140 C 180.714 370.180,181.055 370.180,181.263 370.140 C 181.472 370.100,181.301 370.067,180.884 370.067 C 180.467 370.067,180.297 370.100,180.505 370.140 M175.116 370.308 C 175.324 370.348,175.665 370.348,175.874 370.308 C 176.082 370.268,175.912 370.235,175.495 370.235 C 175.078 370.235,174.907 370.268,175.116 370.308 " stroke="none" fill="#9bd38c" fill-rule="evenodd"></path><path id="path4" d="M100.627 67.368 C 100.627 74.362,100.648 77.223,100.674 73.726 C 100.699 70.229,100.699 64.507,100.674 61.011 C 100.648 57.514,100.627 60.375,100.627 67.368 M254.059 67.453 C 254.059 74.493,254.080 77.348,254.105 73.798 C 254.131 70.248,254.131 64.488,254.105 60.998 C 254.080 57.508,254.059 60.413,254.059 67.453 M298.185 67.537 C 298.185 74.623,298.206 77.522,298.232 73.979 C 298.257 70.436,298.257 64.638,298.232 61.095 C 298.206 57.552,298.185 60.451,298.185 67.537 M270.454 77.768 C 273.634 77.794,278.787 77.794,281.907 77.768 C 285.027 77.743,282.425 77.722,276.126 77.722 C 269.827 77.722,267.275 77.743,270.454 77.768 M117.191 77.937 C 120.371 77.962,125.524 77.962,128.644 77.937 C 131.763 77.911,129.162 77.890,122.863 77.890 C 116.564 77.890,114.012 77.911,117.191 77.937 M115.987 89.053 C 119.616 89.078,125.604 89.078,129.293 89.053 C 132.982 89.027,130.013 89.007,122.695 89.007 C 115.377 89.007,112.359 89.027,115.987 89.053 M269.419 89.053 C 273.048 89.078,279.035 89.078,282.724 89.053 C 286.413 89.027,283.444 89.007,276.126 89.007 C 268.808 89.007,265.790 89.027,269.419 89.053 M99.930 99.663 C 154.845 99.686,244.655 99.686,299.509 99.663 C 354.362 99.640,309.432 99.621,199.663 99.621 C 89.895 99.621,45.015 99.640,99.930 99.663 M100.629 192.421 C 100.629 205.667,100.649 211.111,100.674 204.518 C 100.698 197.926,100.698 187.088,100.674 180.434 C 100.649 173.781,100.629 179.175,100.629 192.421 M225.429 192.421 C 225.429 205.667,225.449 211.111,225.474 204.518 C 225.498 197.926,225.498 187.088,225.474 180.434 C 225.449 173.781,225.429 179.175,225.429 192.421 M295.492 192.421 C 295.492 205.667,295.512 211.111,295.537 204.518 C 295.561 197.926,295.561 187.088,295.537 180.434 C 295.512 173.781,295.492 179.175,295.492 192.421 M311.156 192.421 C 311.156 205.667,311.176 211.111,311.200 204.518 C 311.224 197.926,311.224 187.088,311.200 180.434 C 311.176 173.781,311.156 179.175,311.156 192.421 M365.387 190.484 C 365.387 202.665,365.407 207.648,365.432 201.558 C 365.456 195.467,365.456 185.501,365.432 179.411 C 365.407 173.320,365.387 178.303,365.387 190.484 M394.103 180.337 L 391.832 182.653 394.147 180.381 C 396.299 178.271,396.539 178.021,396.419 178.021 C 396.394 178.021,395.352 179.063,394.103 180.337 M84.589 254.778 L 84.547 278.736 57.389 278.779 L 30.232 278.822 57.395 278.864 C 79.001 278.897,84.574 278.862,84.638 278.695 C 84.682 278.579,84.698 267.760,84.674 254.653 L 84.630 230.821 84.589 254.778 M100.631 254.863 L 100.632 278.821 127.832 278.822 L 155.032 278.823 127.874 278.779 L 100.717 278.736 100.673 254.821 L 100.630 230.905 100.631 254.863 M311.152 240.421 C 311.153 245.701,311.174 247.837,311.200 245.167 C 311.226 242.497,311.226 238.177,311.200 235.567 C 311.174 232.957,311.152 235.141,311.152 240.421 M399.059 233.937 C 399.059 235.558,399.084 236.221,399.115 235.411 C 399.146 234.600,399.146 233.274,399.115 232.463 C 399.084 231.653,399.059 232.316,399.059 233.937 M399.040 240.337 C 399.040 240.846,399.072 241.055,399.110 240.800 C 399.149 240.545,399.149 240.128,399.110 239.874 C 399.072 239.619,399.040 239.827,399.040 240.337 M226.686 260.337 L 226.105 260.968 226.737 260.388 C 227.084 260.069,227.368 259.785,227.368 259.756 C 227.368 259.628,227.226 259.749,226.686 260.337 M323.916 263.190 C 324.078 263.232,324.343 263.232,324.505 263.190 C 324.667 263.147,324.535 263.113,324.211 263.113 C 323.886 263.113,323.754 263.147,323.916 263.190 M244.253 269.421 C 244.415 269.464,244.680 269.464,244.842 269.421 C 245.004 269.379,244.872 269.344,244.547 269.344 C 244.223 269.344,244.091 269.379,244.253 269.421 M246.779 269.421 C 246.941 269.464,247.206 269.464,247.368 269.421 C 247.531 269.379,247.398 269.344,247.074 269.344 C 246.749 269.344,246.617 269.379,246.779 269.421 M182.261 278.863 C 188.807 278.888,199.569 278.888,206.176 278.863 C 212.784 278.839,207.427 278.819,194.274 278.819 C 181.120 278.819,175.714 278.839,182.261 278.863 M30.566 315.874 C 30.566 329.120,30.586 334.564,30.611 327.971 C 30.635 321.378,30.635 310.540,30.611 303.887 C 30.586 297.233,30.566 302.627,30.566 315.874 M206.867 336.000 C 206.867 336.417,206.900 336.587,206.940 336.379 C 206.980 336.171,206.980 335.829,206.940 335.621 C 206.900 335.413,206.867 335.583,206.867 336.000 M177.160 369.843 C 181.642 369.896,186.000 369.894,186.844 369.839 C 187.688 369.784,184.021 369.741,178.695 369.743 L 169.011 369.747 177.160 369.843 M178.320 370.145 C 178.716 370.180,179.323 370.180,179.668 370.143 C 180.013 370.107,179.688 370.078,178.947 370.079 C 178.206 370.079,177.924 370.109,178.320 370.145 M172.931 370.313 C 173.327 370.349,173.933 370.348,174.278 370.312 C 174.623 370.276,174.299 370.247,173.558 370.247 C 172.817 370.248,172.535 370.277,172.931 370.313 " stroke="none" fill="#acc9b6" fill-rule="evenodd"></path></g></svg>